HIERARCHY
ROOT Hips
{
	OFFSET 0.000000 71.427986 0.000000
	CHANNELS 6 Xposition Yposition Zposition Xrotation Yrotation Zrotation
	JOINT Pelvis
	{
		OFFSET 0.000000 0.000000 0.000000
		CHANNELS 3 Xrotation Yrotation Zrotation
		JOINT LeftUpLeg
		{
			OFFSET 6.797100 -2.508499 -1.318700
			CHANNELS 3 Xrotation Yrotation Zrotation
			JOINT LeftLeg
			{
				OFFSET 0.069008 -29.241863 0.690200
				CHANNELS 3 Xrotation Yrotation Zrotation
				JOINT LeftFoot
				{
					OFFSET -0.069008 -29.568123 -0.266800
					CHANNELS 3 Xrotation Yrotation Zrotation
					JOINT LeftToeBase
					{
						OFFSET 3.145500 -8.631000 16.059900
						CHANNELS 3 Xrotation Yrotation Zrotation
						End Site
						{
							OFFSET 0.000000 18.501587 0.000000
						}
					}
				}
			}
			JOINT Left_ShortSleeve
			{
				OFFSET 0.265923 -10.480953 1.153800
				CHANNELS 3 Xrotation Yrotation Zrotation
				End Site
				{
					OFFSET 1.725763 19.823879 0.000000
				}
			}
		}
		JOINT RightUpLeg
		{
			OFFSET -6.797100 -2.508499 -1.318700
			CHANNELS 3 Xrotation Yrotation Zrotation
			JOINT RightLeg
			{
				OFFSET -0.082453 -29.241932 0.688000
				CHANNELS 3 Xrotation Yrotation Zrotation
				JOINT RightFoot
				{
					OFFSET 0.082453 -29.568058 -0.264600
					CHANNELS 3 Xrotation Yrotation Zrotation
					JOINT RightToeBase
					{
						OFFSET -3.115300 -8.682800 16.113400
						CHANNELS 3 Xrotation Yrotation Zrotation
						End Site
						{
							OFFSET 0.000000 18.567114 0.000000
						}
					}
				}
			}
			JOINT Right_ShortSleeve
			{
				OFFSET -0.265923 -10.480953 1.153800
				CHANNELS 3 Xrotation Yrotation Zrotation
				End Site
				{
					OFFSET -1.725766 19.823910 0.000000
				}
			}
		}
	}
	JOINT Spine
	{
		OFFSET 0.000000 13.368103 0.470500
		CHANNELS 3 Xrotation Yrotation Zrotation
		JOINT Spine1
		{
			OFFSET 0.147000 13.837402 0.538800
			CHANNELS 3 Xrotation Yrotation Zrotation
			JOINT Spine2
			{
				OFFSET 0.168000 16.242897 -1.435500
				CHANNELS 3 Xrotation Yrotation Zrotation
				JOINT Neck
				{
					OFFSET 0.217200 18.631500 -1.679100
					CHANNELS 3 Xrotation Yrotation Zrotation
					JOINT Head
					{
						OFFSET 0.000000 6.599396 1.385900
						CHANNELS 3 Xrotation Yrotation Zrotation
						JOINT Hat
						{
							OFFSET -0.532200 27.220596 -10.096100
							CHANNELS 3 Xrotation Yrotation Zrotation
							End Site
							{
								OFFSET 0.000000 22.029861 0.000000
							}
						}
						JOINT HairD
						{
							OFFSET -10.777400 17.437393 -1.325900
							CHANNELS 3 Xrotation Yrotation Zrotation
							JOINT HairD1
							{
								OFFSET -3.290299 -11.051193 1.062200
								CHANNELS 3 Xrotation Yrotation Zrotation
								End Site
								{
									OFFSET 0.000000 11.579437 0.000000
								}
							}
						}
						JOINT HairB
						{
							OFFSET -10.777400 17.437393 1.467900
							CHANNELS 3 Xrotation Yrotation Zrotation
							JOINT HairB1
							{
								OFFSET -1.561200 -12.956299 3.590200
								CHANNELS 3 Xrotation Yrotation Zrotation
								End Site
								{
									OFFSET 0.000000 13.534866 0.000000
								}
							}
						}
						JOINT HairA
						{
							OFFSET 9.713100 17.437393 1.467900
							CHANNELS 3 Xrotation Yrotation Zrotation
							JOINT HairA1
							{
								OFFSET 1.561200 -12.956299 3.590200
								CHANNELS 3 Xrotation Yrotation Zrotation
								End Site
								{
									OFFSET 0.000000 13.534866 0.000000
								}
							}
						}
						JOINT HairC
						{
							OFFSET 9.713100 17.437393 -1.325900
							CHANNELS 3 Xrotation Yrotation Zrotation
							JOINT HairC1
							{
								OFFSET 3.290300 -11.051193 1.062200
								CHANNELS 3 Xrotation Yrotation Zrotation
								End Site
								{
									OFFSET 0.000000 11.579437 0.000000
								}
							}
						}
					}
				}
				JOINT LeftShoulder
				{
					OFFSET 5.101800 15.108002 -2.763700
					CHANNELS 3 Xrotation Yrotation Zrotation
					JOINT LeftArm
					{
						OFFSET 9.825497 2.506317 -1.597400
						CHANNELS 3 Xrotation Yrotation Zrotation
						JOINT LeftForeArm
						{
							OFFSET 21.966244 0.000000 0.000000
							CHANNELS 3 Xrotation Yrotation Zrotation
							JOINT LeftHand
							{
								OFFSET 33.879036 0.000000 0.000000
								CHANNELS 3 Xrotation Yrotation Zrotation
								JOINT LeftHandThumb1
								{
									OFFSET 6.715286 -2.359680 3.363841
									CHANNELS 3 Xrotation Yrotation Zrotation
									JOINT LeftHandThumb2
									{
										OFFSET 2.507072 -1.447464 1.447461
										CHANNELS 3 Xrotation Yrotation Zrotation
										JOINT LeftHandThumb3
										{
											OFFSET 2.898338 -1.673355 1.673357
											CHANNELS 3 Xrotation Yrotation Zrotation
											End Site
											{
												OFFSET -0.295959 3.727692 -0.131651
											}
										}
									}
								}
								JOINT LeftHandIndex1
								{
									OFFSET 14.190811 -0.254547 3.840278
									CHANNELS 3 Xrotation Yrotation Zrotation
									JOINT LeftHandIndex2
									{
										OFFSET 3.551727 0.000000 -0.000000
										CHANNELS 3 Xrotation Yrotation Zrotation
										JOINT LeftHandIndex3
										{
											OFFSET 2.894196 0.000000 0.000000
											CHANNELS 3 Xrotation Yrotation Zrotation
											End Site
											{
												OFFSET -1.000603 2.690872 0.366626
											}
										}
									}
								}
								JOINT LeftHandMiddle1
								{
									OFFSET 13.776489 0.000000 0.000000
									CHANNELS 3 Xrotation Yrotation Zrotation
									JOINT LeftHandMiddle2
									{
										OFFSET 3.438232 0.000000 0.000000
										CHANNELS 3 Xrotation Yrotation Zrotation
										JOINT LeftHandMiddle3
										{
											OFFSET 3.691551 0.000000 0.000000
											CHANNELS 3 Xrotation Yrotation Zrotation
											End Site
											{
												OFFSET -1.082298 3.499527 0.457670
											}
										}
									}
								}
								JOINT LeftHandRing1
								{
									OFFSET 13.966164 -0.268127 -3.067488
									CHANNELS 3 Xrotation Yrotation Zrotation
									JOINT LeftHandRing2
									{
										OFFSET 3.162567 0.000000 0.000000
										CHANNELS 3 Xrotation Yrotation Zrotation
										JOINT LeftHandRing3
										{
											OFFSET 3.324348 0.000000 0.000000
											CHANNELS 3 Xrotation Yrotation Zrotation
											End Site
											{
												OFFSET -0.861900 3.184998 0.405154
											}
										}
									}
								}
								JOINT LeftHandPinky1
								{
									OFFSET 13.131393 -0.168503 -5.746925
									CHANNELS 3 Xrotation Yrotation Zrotation
									JOINT LeftHandPinky2
									{
										OFFSET 2.849182 0.000000 0.000000
										CHANNELS 3 Xrotation Yrotation Zrotation
										JOINT LeftHandPinky3
										{
											OFFSET 2.805038 0.000000 0.000000
											CHANNELS 3 Xrotation Yrotation Zrotation
											End Site
											{
												OFFSET -0.882500 2.642609 0.325652
											}
										}
									}
								}
							}
							JOINT Left_Sleeve
							{
								OFFSET 6.592125 -0.646545 0.805568
								CHANNELS 3 Xrotation Yrotation Zrotation
								End Site
								{
									OFFSET -0.000179 20.275787 -0.000000
								}
							}
						}
					}
				}
				JOINT RightShoulder
				{
					OFFSET -5.731700 15.108002 -2.763700
					CHANNELS 3 Xrotation Yrotation Zrotation
					JOINT RightArm
					{
						OFFSET -9.825497 2.506317 -1.597400
						CHANNELS 3 Xrotation Yrotation Zrotation
						JOINT RightForeArm
						{
							OFFSET -21.966242 0.000000 0.000000
							CHANNELS 3 Xrotation Yrotation Zrotation
							JOINT RightHand
							{
								OFFSET -33.879032 0.000000 0.000000
								CHANNELS 3 Xrotation Yrotation Zrotation
								JOINT RightHandThumb1
								{
									OFFSET -6.715286 -2.359680 3.363841
									CHANNELS 3 Xrotation Yrotation Zrotation
									JOINT RightHandThumb2
									{
										OFFSET -2.507072 -1.447464 1.447461
										CHANNELS 3 Xrotation Yrotation Zrotation
										JOINT RightHandThumb3
										{
											OFFSET -2.898338 -1.673355 1.673357
											CHANNELS 3 Xrotation Yrotation Zrotation
											End Site
											{
												OFFSET 0.295959 3.727692 -0.131651
											}
										}
									}
								}
								JOINT RightHandIndex1
								{
									OFFSET -14.190811 -0.254547 3.840278
									CHANNELS 3 Xrotation Yrotation Zrotation
									JOINT RightHandIndex2
									{
										OFFSET -3.551727 0.000000 -0.000000
										CHANNELS 3 Xrotation Yrotation Zrotation
										JOINT RightHandIndex3
										{
											OFFSET -2.894196 0.000000 0.000000
											CHANNELS 3 Xrotation Yrotation Zrotation
											End Site
											{
												OFFSET 1.000603 2.690872 0.366626
											}
										}
									}
								}
								JOINT RightHandMiddle1
								{
									OFFSET -13.776489 0.000000 0.000000
									CHANNELS 3 Xrotation Yrotation Zrotation
									JOINT RightHandMiddle2
									{
										OFFSET -3.438232 0.000000 0.000000
										CHANNELS 3 Xrotation Yrotation Zrotation
										JOINT RightHandMiddle3
										{
											OFFSET -3.691551 0.000000 0.000000
											CHANNELS 3 Xrotation Yrotation Zrotation
											End Site
											{
												OFFSET 1.082298 3.499527 0.457670
											}
										}
									}
								}
								JOINT RightHandRing1
								{
									OFFSET -13.966164 -0.268127 -3.067488
									CHANNELS 3 Xrotation Yrotation Zrotation
									JOINT RightHandRing2
									{
										OFFSET -3.162567 0.000000 0.000000
										CHANNELS 3 Xrotation Yrotation Zrotation
										JOINT RightHandRing3
										{
											OFFSET -3.324348 0.000000 0.000000
											CHANNELS 3 Xrotation Yrotation Zrotation
											End Site
											{
												OFFSET 0.861900 3.184998 0.405154
											}
										}
									}
								}
								JOINT RightHandPinky1
								{
									OFFSET -13.131393 -0.168503 -5.746925
									CHANNELS 3 Xrotation Yrotation Zrotation
									JOINT RightHandPinky2
									{
										OFFSET -2.849182 0.000000 0.000000
										CHANNELS 3 Xrotation Yrotation Zrotation
										JOINT RightHandPinky3
										{
											OFFSET -2.805038 0.000000 0.000000
											CHANNELS 3 Xrotation Yrotation Zrotation
											End Site
											{
												OFFSET 0.882500 2.642609 0.325652
											}
										}
									}
								}
							}
							JOINT Right_Sleeve
							{
								OFFSET -6.592125 -0.646545 0.805568
								CHANNELS 3 Xrotation Yrotation Zrotation
								End Site
								{
									OFFSET 0.000179 20.275787 -0.000000
								}
							}
						}
					}
				}
				JOINT Bind_Right_JacketString
				{
					OFFSET -3.534800 11.969597 7.200700
					CHANNELS 3 Xrotation Yrotation Zrotation
					JOINT Bind_Right_JacketString1
					{
						OFFSET -0.319900 -6.102600 2.794100
						CHANNELS 3 Xrotation Yrotation Zrotation
						End Site
						{
							OFFSET 0.000000 6.719452 0.000000
						}
					}
				}
				JOINT Bind_Left_JacketString
				{
					OFFSET 2.904800 11.969597 7.200700
					CHANNELS 3 Xrotation Yrotation Zrotation
					JOINT Bind_Left_JacketString1
					{
						OFFSET 0.364800 -5.904503 3.186800
						CHANNELS 3 Xrotation Yrotation Zrotation
						End Site
						{
							OFFSET 0.000000 6.719513 0.000000
						}
					}
				}
				JOINT HairE
				{
					OFFSET 5.915200 17.612701 -11.592200
					CHANNELS 3 Xrotation Yrotation Zrotation
					JOINT HairE1
					{
						OFFSET 0.289200 -7.171898 -1.284500
						CHANNELS 3 Xrotation Yrotation Zrotation
						End Site
						{
							OFFSET 0.000000 7.291756 0.000000
						}
					}
				}
				JOINT HairF
				{
					OFFSET -0.864800 17.612701 -11.592200
					CHANNELS 3 Xrotation Yrotation Zrotation
					JOINT HairF1
					{
						OFFSET 0.000000 -14.087097 -2.127501
						CHANNELS 3 Xrotation Yrotation Zrotation
						End Site
						{
							OFFSET 0.000000 14.246841 0.000000
						}
					}
				}
				JOINT HairG
				{
					OFFSET -8.087700 17.612701 -11.592200
					CHANNELS 3 Xrotation Yrotation Zrotation
					JOINT HairG1
					{
						OFFSET -0.293600 -6.081398 -0.910100
						CHANNELS 3 Xrotation Yrotation Zrotation
						End Site
						{
							OFFSET 0.000000 6.156120 0.000000
						}
					}
				}
			}
		}
	}
	JOINT Pouch
	{
		OFFSET 0.000000 4.394501 10.847300
		CHANNELS 3 Xrotation Yrotation Zrotation
		End Site
		{
			OFFSET 0.000000 21.880577 0.000000
		}
	}
	JOINT Bag
	{
		OFFSET -13.229000 4.813004 -0.593300
		CHANNELS 3 Xrotation Yrotation Zrotation
		End Site
		{
			OFFSET 0.000000 21.880577 0.000000
		}
	}
	JOINT OccupyGuyFacialAnim_Joint
	{
		OFFSET 1.000000 -70.206398 -1.655000
		CHANNELS 3 Xrotation Yrotation Zrotation
		End Site
		{
			OFFSET 0.000000 21.880577 0.000000
		}
	}
}
MOTION
Frames: 4
Frame Time: 0.016667
0.635085 38.169022 -1.776954 0.998410 -28.668039 8.323420 -0.000000 -0.000000 0.000000 -75.006337 -9.447250 45.850483 77.476338 9.156831 -5.779004 17.049598 0.816777 -12.547214 0.000000 0.000001 0.000000 -0.000001 0.000001 -0.000001 -25.174684 -5.023333 -16.427069 117.309947 -1.912539 -0.585033 24.662737 0.853614 6.999467 -0.000001 0.000000 -0.000001 0.000002 -0.000004 -0.000003 3.629653 -5.981755 -3.622031 2.855673 -4.198782 -2.072993 2.773306 -4.260257 -2.035174 0.447420 2.821369 2.164894 0.278331 15.546810 4.247279 0.000001 0.000002 -0.000001 0.000001 0.000002 -0.000001 0.000001 0.000002 -0.000001 0.000001 0.000002 -0.000001 0.000001 0.000000 -0.000000 0.000001 0.000002 -0.000001 0.000001 0.000000 -0.000000 0.000001 0.000002 -0.000001 0.000001 0.000002 -0.000001 1.530510 -0.690790 -2.366976 -3.234546 -12.111234 -50.675390 0.001218 -87.973308 0.001282 -53.085077 20.313609 41.451865 -1.540052 3.690183 6.142358 3.939061 7.948712 0.746804 0.000000 -0.000000 -0.000001 1.016546 3.605845 -31.478706 1.016517 3.605833 -31.478709 0.000006 -0.000001 -0.000002 1.299291 4.030471 -35.722873 1.301560 4.033580 -35.754999 -0.000001 0.000001 -0.000001 1.751623 4.592861 -41.733675 1.751612 4.592879 -41.733706 -0.000001 0.000003 -0.000002 4.911445 7.752513 -44.887877 2.046416 0.814398 -45.446965 -0.000000 0.000000 -0.000001 0.000001 0.000002 0.000003 5.585475 17.928719 2.373354 -33.414662 -16.065396 41.084626 0.014739 92.810304 -0.014797 44.885353 -28.255036 9.382493 -1.849246 -3.581788 -6.586148 4.637199 -8.634128 -0.225402 0.000001 -0.000001 0.000001 0.081188 -1.061622 8.746200 0.001255 -0.132367 1.086259 0.000000 -0.000001 0.000000 0.493229 -2.576627 21.670010 0.002554 -0.188673 1.548418 0.000001 0.000002 -0.000000 0.682833 -3.009772 25.559227 0.002551 -0.188674 1.548414 0.000000 0.000001 -0.000002 1.013756 -3.620343 31.277127 0.002547 -0.188689 1.548433 -0.000000 0.000000 -0.000005 -0.000001 0.000002 0.000003 0.000001 0.000003 0.000000 0.000002 -0.000002 -0.000000 0.000001 0.000003 -0.000001 0.000001 0.000003 -0.000001 0.000001 0.000003 0.000000 0.000002 -0.000002 0.000000 0.000001 0.000003 -0.000001 0.000001 0.000003 -0.000001 0.000001 0.000003 0.000000 0.000002 -0.000002 0.000000 -0.000000 -0.000000 0.000000 -0.000000 -0.000000 0.000000 -0.000000 -0.000000 0.000000 
0.614461 38.164307 -1.788560 1.061050 -28.675777 8.383620 -0.000000 -0.000000 -0.000001 -75.026684 -9.394195 45.927514 77.395633 9.145167 -5.836471 17.128202 0.885217 -12.509357 -0.000000 0.000002 -0.000000 0.000000 -0.000002 0.000000 -25.259675 -5.017482 -16.382217 117.360053 -1.939414 -0.583292 24.545864 0.824555 6.877022 -0.000001 -0.000001 0.000000 -0.000001 0.000000 -0.000000 3.622847 -5.923137 -3.751269 2.844912 -4.152774 -2.149812 2.768603 -4.212011 -2.111294 0.463160 2.837759 2.357655 0.012649 15.814926 4.562047 0.000001 -0.000001 -0.000000 0.000001 -0.000001 -0.000000 0.000001 -0.000001 0.000000 0.000001 -0.000001 -0.000000 0.000001 -0.000001 0.000000 0.000001 -0.000001 -0.000000 0.000001 -0.000001 0.000000 0.000001 -0.000001 -0.000000 0.000001 -0.000001 -0.000000 1.530166 -0.744394 -1.917308 -3.271990 -12.105433 -51.033032 0.000529 -88.077359 0.000310 -52.890106 20.116184 41.398733 -1.540054 3.690181 6.142356 3.939063 7.948714 0.746802 -0.000000 0.000002 -0.000001 1.016546 3.605840 -31.478699 1.016522 3.605835 -31.478709 0.000003 0.000001 -0.000000 1.299290 4.030465 -35.722873 1.301560 4.033583 -35.755002 0.000003 0.000002 -0.000001 1.751623 4.592853 -41.733675 1.751611 4.592886 -41.733709 0.000002 0.000000 -0.000001 4.911443 7.752510 -44.887877 2.046413 0.814400 -45.446962 0.000004 -0.000003 0.000002 0.000000 0.000002 -0.000001 5.560240 17.956436 2.651590 -32.494437 -15.150557 39.610275 0.001875 94.692868 -0.001860 40.622072 -28.211598 8.823201 -1.849247 -3.581787 -6.586149 4.637197 -8.634122 -0.225400 0.000000 0.000001 0.000002 0.081137 -1.061265 8.743211 0.000150 -0.046011 0.377544 0.000001 0.000000 0.000002 0.505649 -2.607633 21.944575 0.000310 -0.065740 0.539490 0.000002 0.000001 -0.000001 0.699984 -3.045318 25.883922 0.000306 -0.065750 0.539481 0.000001 0.000002 -0.000002 1.039066 -3.661599 31.675661 0.000311 -0.065745 0.539488 -0.000001 -0.000002 0.000000 -0.000001 0.000002 -0.000002 -0.000000 -0.000001 -0.000000 -0.000000 0.000001 -0.000001 -0.000000 -0.000001 0.000000 -0.000000 -0.000001 0.000000 -0.000000 -0.000001 -0.000000 -0.000000 0.000001 -0.000001 -0.000000 -0.000001 0.000000 -0.000000 -0.000001 0.000000 -0.000000 -0.000001 -0.000000 -0.000000 0.000001 -0.000001 -0.000000 -0.000000 -0.000001 -0.000000 -0.000000 -0.000001 -0.000000 -0.000000 -0.000001 
0.592471 38.159233 -1.800230 1.128906 -28.676150 8.454739 0.000000 -0.000002 0.000001 -75.056300 -9.330816 45.997707 77.318144 9.139254 -5.893877 17.196060 0.922077 -12.467421 -0.000000 0.000001 -0.000000 -0.000001 0.000001 -0.000001 -25.347396 -5.014612 -16.347552 117.397209 -1.943704 -0.582820 24.459307 0.803202 6.785723 -0.000003 -0.000001 -0.000000 0.000002 0.000000 0.000000 3.609708 -5.873660 -3.880309 2.829096 -4.112355 -2.227857 2.758119 -4.169728 -2.188754 0.482737 2.858642 2.531982 -0.284942 16.079353 4.861551 -0.000000 0.000001 -0.000000 -0.000000 0.000001 -0.000000 -0.000000 0.000001 -0.000000 -0.000000 0.000001 -0.000001 -0.000000 0.000001 -0.000001 -0.000000 0.000001 -0.000001 -0.000000 0.000001 -0.000001 -0.000000 0.000001 -0.000000 -0.000000 0.000001 -0.000000 1.512195 -0.744084 -1.544893 -3.279718 -12.155382 -51.329831 -0.000977 -88.114187 -0.001023 -52.731618 19.892627 41.299183 -1.540051 3.690181 6.142359 3.939063 7.948716 0.746805 0.000001 0.000003 -0.000002 1.016549 3.605842 -31.478696 1.016520 3.605833 -31.478709 0.000001 -0.000001 0.000001 1.299293 4.030469 -35.722876 1.301558 4.033578 -35.755002 0.000002 0.000003 0.000001 1.751625 4.592860 -41.733672 1.751613 4.592877 -41.733706 0.000000 0.000002 -0.000001 4.911445 7.752516 -44.887873 2.046409 0.814400 -45.446962 -0.000002 -0.000000 0.000001 0.000003 0.000003 0.000004 5.540486 17.992971 2.918227 -31.912905 -14.467700 38.297646 0.000890 96.455255 -0.000919 36.803112 -27.544608 9.079547 -1.849246 -3.581790 -6.586148 4.637198 -8.634119 -0.225403 0.000001 0.000000 0.000002 0.081079 -1.060918 8.740250 -0.000001 -0.003754 0.030854 0.000000 -0.000000 0.000000 0.514996 -2.630687 22.149274 0.000002 -0.003843 0.031510 0.000001 0.000001 -0.000001 0.712893 -3.071761 26.125988 0.000002 -0.003836 0.031516 -0.000001 -0.000000 -0.000004 1.058112 -3.692232 31.972775 -0.000003 -0.003846 0.031519 -0.000001 -0.000002 -0.000002 -0.000002 0.000000 0.000000 -0.000001 -0.000003 0.000000 -0.000000 -0.000001 -0.000000 -0.000001 -0.000003 0.000000 -0.000001 -0.000003 0.000000 -0.000001 -0.000003 0.000000 -0.000000 -0.000001 0.000000 -0.000001 -0.000003 0.000000 -0.000001 -0.000003 0.000000 -0.000001 -0.000003 0.000000 -0.000000 -0.000001 0.000000 0.000000 -0.000002 0.000001 0.000000 -0.000002 0.000001 0.000000 -0.000002 0.000001 
0.567451 38.154854 -1.811641 1.195084 -28.662202 8.527489 0.000000 0.000000 -0.000000 -75.081401 -9.271390 46.060012 77.243183 9.139351 -5.963538 17.253430 0.924620 -12.421849 0.000000 -0.000001 -0.000000 0.000000 0.000001 0.000000 -25.426936 -5.027511 -16.319243 117.413438 -1.934886 -0.585836 24.411147 0.790173 6.727931 -0.000000 0.000001 -0.000000 0.000002 -0.000001 -0.000000 3.592875 -5.837060 -4.008208 2.810493 -4.080796 -2.306021 2.744170 -4.136569 -2.266375 0.495816 2.875340 2.696920 -0.557784 16.320414 5.115392 -0.000000 -0.000001 0.000000 -0.000000 -0.000001 0.000000 -0.000000 -0.000001 0.000001 -0.000000 -0.000001 -0.000000 -0.000000 -0.000001 -0.000000 -0.000000 -0.000001 -0.000000 -0.000000 -0.000001 -0.000000 -0.000000 -0.000001 0.000000 -0.000000 -0.000001 0.000000 1.480362 -0.701470 -1.238070 -3.264505 -12.231492 -51.554326 -0.001925 -88.164847 -0.001783 -52.644079 19.692585 41.206162 -1.540049 3.690182 6.142355 3.939063 7.948709 0.746804 -0.000000 -0.000002 0.000000 1.016544 3.605842 -31.478696 1.016521 3.605837 -31.478713 -0.000000 0.000003 0.000002 1.299292 4.030466 -35.722876 1.301559 4.033579 -35.755002 0.000000 0.000001 -0.000003 1.751622 4.592860 -41.733678 1.751611 4.592882 -41.733709 -0.000001 0.000002 -0.000003 4.911444 7.752512 -44.887870 2.046412 0.814403 -45.446969 0.000001 0.000001 -0.000001 -0.000003 -0.000002 -0.000002 5.526706 18.040669 3.182612 -31.850938 -14.060288 37.299550 0.000105 98.091639 -0.000159 34.080267 -26.275750 10.628208 -1.849246 -3.581793 -6.586150 4.637197 -8.634126 -0.225403 0.000001 -0.000004 0.000002 0.081029 -1.060587 8.737472 0.000002 0.003396 -0.000124 -0.000001 -0.000002 0.000002 0.521050 -2.645508 22.280709 0.000007 0.008580 0.000015 0.000001 0.000001 0.000001 0.721250 -3.088721 26.281446 0.000004 0.008590 -0.000033 0.000000 0.000000 0.000001 1.070439 -3.711859 32.163566 0.000005 0.008581 0.000088 0.000000 0.000000 -0.000001 0.000004 0.000001 0.000001 0.000000 -0.000001 0.000001 0.000001 -0.000001 -0.000000 0.000000 -0.000001 0.000000 0.000000 -0.000001 0.000000 0.000000 -0.000001 0.000001 0.000001 -0.000001 0.000000 0.000000 -0.000001 0.000000 0.000000 -0.000001 0.000000 0.000000 -0.000001 0.000001 0.000001 -0.000001 0.000000 0.000000 0.000000 -0.000000 0.000000 0.000000 -0.000000 0.000000 0.000000 -0.000000 
